<?xml version="1.0" encoding="UTF-8"?>
<svg xmlns="http://www.w3.org/2000/svg" xmlns:xlink="http://www.w3.org/1999/xlink" width="1001.24pt" height="515.14pt" viewBox="0 0 1001.24 515.14" version="1.1">
<defs>
<clipPath id="clip1">
  <path d="M 705 473 L 730 473 L 730 515.140625 L 705 515.140625 Z M 705 473 "/>
</clipPath>
<clipPath id="clip2">
  <path d="M 979 473 L 1001.238281 473 L 1001.238281 502 L 979 502 Z M 979 473 "/>
</clipPath>
<clipPath id="clip3">
  <path d="M 995 387 L 1001.238281 387 L 1001.238281 429 L 995 429 Z M 995 387 "/>
</clipPath>
</defs>
<g id="surface1">
<path style=" stroke:none;fill-rule:nonzero;fill:rgb(64.256287%,82.421875%,64.256287%);fill-opacity:1;" d="M 543.453125 5.445313 C 545.621094 2.867188 548.160156 -0.292969 551.941406 0.0273438 C 556.730469 -0.203125 560.933594 4.164063 560.871094 8.886719 C 560.84375 14.945313 559.703125 20.9375 559.492188 26.984375 C 559.230469 34.535156 558.453125 42.054688 557.621094 49.566406 C 550.851563 53.496094 543.992188 57.265625 537.332031 61.375 C 534.800781 62.964844 532.082031 64.214844 529.292969 65.265625 C 527.101563 56.996094 524.742188 48.777344 522.351563 40.554688 C 521.691406 37.636719 519.972656 34.035156 522.390625 31.464844 C 529.441406 22.816406 536.472656 14.144531 543.453125 5.445313 "/>
<path style=" stroke:none;fill-rule:nonzero;fill:rgb(64.256287%,82.421875%,64.256287%);fill-opacity:1;" d="M 376.230469 179.265625 C 385.421875 171.304688 394.570313 163.304688 403.753906 155.324219 C 414.183594 158.1875 424.582031 161.175781 434.960938 164.234375 C 429.902344 174.035156 424.652344 183.746094 419.261719 193.367188 C 406.140625 194.464844 393.070313 196.394531 379.902344 196.746094 C 374.960938 197.226563 371.183594 192.464844 371.140625 187.847656 C 371.082031 184.257813 373.691406 181.464844 376.230469 179.265625 "/>
<path style=" stroke:none;fill-rule:nonzero;fill:rgb(17.259216%,70.117188%,64.646912%);fill-opacity:1;" d="M 442.171875 8.875 C 441.800781 4.175781 446.5625 0.554688 450.953125 0.597656 C 454.121094 0.707031 456.863281 2.695313 458.730469 5.15625 C 466.171875 14.375 473.800781 23.445313 481.300781 32.625 C 483.050781 34.214844 481.730469 36.554688 481.382813 38.464844 C 478.703125 47.546875 476.632813 56.796875 473.8125 65.824219 C 470.300781 64.675781 467.300781 62.4375 464.09375 60.675781 C 457.851563 57.207031 451.652344 53.644531 445.453125 50.105469 C 444.5625 36.347656 442.28125 22.6875 442.171875 8.875 "/>
<path style=" stroke:none;fill-rule:nonzero;fill:rgb(17.259216%,70.117188%,64.646912%);fill-opacity:1;" d="M 569.652344 163.324219 C 580.011719 160.136719 590.441406 157.164063 600.832031 154.074219 C 609.253906 161.625 617.992188 168.816406 626.570313 176.1875 C 629.570313 178.796875 633.523438 181.554688 633.5625 185.976563 C 634.210938 191.644531 628.480469 196.664063 622.933594 195.566406 C 610.460938 194.355469 597.972656 193.4375 585.492188 192.40625 C 580.203125 182.714844 574.703125 173.144531 569.652344 163.324219 "/>
<path style=" stroke:none;fill-rule:nonzero;fill:rgb(17.259216%,70.117188%,64.646912%);fill-opacity:1;" d="M 446.402344 220.164063 C 455.753906 214.785156 465.222656 209.605469 474.511719 204.117188 C 475.761719 209.335938 476.472656 214.65625 477.132813 219.976563 C 477.890625 226.324219 479.621094 232.566406 479.753906 238.984375 C 480.011719 240.855469 478.472656 242.144531 477.492188 243.515625 C 471.382813 250.746094 465.410156 258.097656 459.402344 265.40625 C 457.203125 268.207031 453.683594 270.445313 450.003906 269.546875 C 444.832031 268.566406 441.792969 262.875 442.851563 257.90625 C 444.550781 245.375 444.871094 232.714844 446.402344 220.164063 "/>
<path style=" stroke:none;fill-rule:nonzero;fill:rgb(35.301208%,35.301208%,35.301208%);fill-opacity:1;" d="M 500.472656 15.1875 C 501.523438 15.144531 502.582031 15.125 503.640625 15.097656 C 508.480469 31.90625 512.292969 49.007813 516.742188 65.914063 C 517.722656 71.40625 520.820313 76.847656 519.242188 82.507813 C 517.871094 87.4375 516.542969 92.375 515.300781 97.335938 C 514.523438 97.097656 512.953125 96.605469 512.160156 96.367188 C 510.972656 90.707031 510.691406 84.734375 508.523438 79.355469 C 504.671875 77.394531 499.933594 78.707031 495.753906 78.664063 C 493.960938 84.355469 493.023438 90.277344 492.140625 96.164063 C 491.042969 96.566406 489.953125 96.976563 488.871094 97.394531 C 487.683594 92.1875 486.152344 87.074219 484.792969 81.925781 C 483.710938 78.574219 485.0625 75.195313 485.871094 71.964844 C 490.882813 53.074219 495.253906 34.015625 500.472656 15.1875 "/>
<path style=" stroke:none;fill-rule:nonzero;fill:rgb(35.301208%,35.301208%,35.301208%);fill-opacity:1;" d="M 419.800781 49.097656 C 421.53125 49.574219 423.230469 50.1875 424.773438 51.144531 C 441.363281 61.214844 458.03125 71.1875 474.652344 81.207031 C 476.683594 82.226563 477.582031 84.386719 478.671875 86.246094 C 480.933594 90.414063 483.28125 94.535156 485.523438 98.726563 C 484.820313 99.117188 483.441406 99.894531 482.753906 100.285156 C 478.101563 97.246094 473.851563 93.546875 468.910156 90.984375 C 464.5625 91.867188 461.570313 96.40625 459.300781 99.984375 C 461.371094 105.515625 465.511719 109.945313 468.523438 114.976563 C 467.953125 115.914063 467.382813 116.855469 466.832031 117.804688 C 462.292969 115.085938 457.691406 112.476563 453.132813 109.796875 C 451.613281 108.996094 450.480469 107.695313 449.691406 106.207031 C 439.371094 88.074219 429.011719 69.964844 418.683594 51.847656 C 418.960938 51.15625 419.523438 49.785156 419.800781 49.097656 "/>
<path style=" stroke:none;fill-rule:nonzero;fill:rgb(35.301208%,35.301208%,35.301208%);fill-opacity:1;" d="M 580.570313 50.445313 C 582.191406 49.425781 584.523438 48.546875 585.511719 50.875 C 585.023438 52.734375 584.070313 54.425781 583.132813 56.085938 C 573.191406 73.195313 563.613281 90.527344 553.582031 107.574219 C 548.851563 111.945313 542.601563 114.367188 537.183594 117.804688 C 536.703125 116.824219 536.230469 115.847656 535.773438 114.867188 C 538.773438 109.914063 542.78125 105.457031 544.910156 100.035156 C 542.910156 96.285156 539.671875 92.746094 535.832031 90.855469 C 530.570313 93.097656 526.371094 97.207031 521.550781 100.226563 C 520.570313 99.757813 519.59375 99.285156 518.632813 98.824219 C 521.320313 93.835938 523.960938 88.816406 526.851563 83.945313 C 527.78125 82.207031 529.5625 81.226563 531.183594 80.207031 C 547.683594 70.347656 564.113281 60.367188 580.570313 50.445313 "/>
<path style=" stroke:none;fill-rule:nonzero;fill:rgb(35.301208%,35.301208%,35.301208%);fill-opacity:1;" d="M 442.660156 117.726563 C 445.003906 117.144531 447.453125 115.90625 449.871094 116.875 C 455.121094 118.4375 460.441406 119.765625 465.652344 121.464844 C 465.382813 122.1875 464.832031 123.636719 464.5625 124.355469 C 458.890625 125.757813 453.03125 126.394531 447.480469 128.265625 C 447.601563 132.617188 445.980469 137.765625 448.363281 141.605469 C 453.511719 143.617188 459.273438 143.796875 464.613281 145.347656 C 464.851563 146.097656 465.34375 147.585938 465.582031 148.335938 C 459.722656 150.015625 453.871094 151.835938 447.941406 153.257813 C 426.980469 147.796875 405.972656 142.324219 385.152344 136.316406 C 385.640625 134.996094 385.421875 132.804688 387.273438 132.625 C 405.703125 127.546875 424.203125 122.714844 442.660156 117.726563 "/>
<path style=" stroke:none;fill-rule:nonzero;fill:rgb(35.301208%,35.301208%,35.301208%);fill-opacity:1;" d="M 538.503906 121.546875 C 543.59375 119.707031 548.871094 118.507813 554.042969 116.894531 C 556.730469 115.835938 559.460938 117.214844 562.070313 117.855469 C 580.902344 122.914063 599.710938 128.007813 618.570313 132.945313 C 618.5625 134.074219 618.59375 135.226563 618.472656 136.367188 C 616.792969 137.257813 614.902344 137.644531 613.09375 138.15625 C 594.363281 143.117188 575.660156 148.195313 556.941406 153.164063 C 550.710938 152.226563 544.652344 149.964844 538.570313 148.214844 C 538.820313 147.507813 539.320313 146.097656 539.5625 145.386719 C 544.503906 144.144531 549.523438 143.324219 554.503906 142.257813 C 556.132813 142.144531 556.761719 140.484375 556.953125 139.085938 C 557.453125 135.335938 557.023438 131.527344 556.351563 127.824219 C 550.78125 126.644531 545.183594 125.644531 539.652344 124.335938 C 539.363281 123.636719 538.792969 122.246094 538.503906 121.546875 "/>
<path style=" stroke:none;fill-rule:nonzero;fill:rgb(35.301208%,35.301208%,35.301208%);fill-opacity:1;" d="M 452.980469 160.027344 C 457.613281 157.277344 462.28125 154.574219 466.941406 151.875 C 467.421875 152.867188 467.910156 153.867188 468.410156 154.867188 C 465.601563 159.296875 462.34375 163.457031 459.890625 168.105469 C 458.503906 170.054688 460.53125 171.757813 461.660156 173.207031 C 463.402344 175.097656 465.132813 177.105469 467.351563 178.464844 C 468.761719 179.195313 470.113281 178.074219 471.300781 177.414063 C 475.183594 174.835938 478.910156 172.015625 482.753906 169.367188 C 483.460938 169.757813 484.882813 170.535156 485.59375 170.9375 C 482.5625 176.457031 479.523438 181.976563 476.421875 187.457031 C 458.453125 198.125 440.632813 209.046875 422.691406 219.765625 C 421.0625 221.105469 419.390625 219.6875 418.371094 218.40625 C 428.042969 201.4375 437.761719 184.496094 447.410156 167.515625 C 449.011719 164.867188 450.09375 161.585938 452.980469 160.027344 "/>
<path style=" stroke:none;fill-rule:nonzero;fill:rgb(35.301208%,35.301208%,35.301208%);fill-opacity:1;" d="M 537.3125 151.855469 C 542.640625 155.035156 548.03125 158.117188 553.34375 161.324219 C 563.242188 179.054688 573.433594 196.625 583.492188 214.277344 C 584.371094 215.90625 585.121094 217.605469 585.863281 219.324219 C 585.101563 219.566406 583.582031 220.054688 582.832031 220.304688 C 578.953125 218.605469 575.542969 216.035156 571.871094 213.964844 C 559.410156 206.4375 546.953125 198.914063 534.453125 191.445313 C 531.671875 189.664063 528.222656 188.40625 526.601563 185.324219 C 523.863281 180.625 521.351563 175.785156 518.640625 171.066406 C 519.261719 170.636719 520.503906 169.777344 521.132813 169.347656 C 525.871094 172.234375 530.082031 175.964844 535.023438 178.546875 C 535.503906 178.535156 536.460938 178.496094 536.941406 178.484375 C 539.691406 176.40625 542.082031 173.867188 544.230469 171.1875 C 545.492188 169.664063 544.273438 167.777344 543.453125 166.394531 C 540.933594 162.464844 538.3125 158.597656 535.691406 154.734375 C 536.222656 153.777344 536.761719 152.816406 537.3125 151.855469 "/>
<path style=" stroke:none;fill-rule:nonzero;fill:rgb(35.301208%,35.301208%,35.301208%);fill-opacity:1;" d="M 488.902344 172.296875 C 489.972656 172.664063 491.042969 173.035156 492.121094 173.40625 C 492.941406 179.226563 494.03125 185.007813 495.511719 190.695313 C 499.773438 191.246094 504.433594 192.074219 508.53125 190.457031 C 510.570313 185.007813 511.070313 179.117188 512.082031 173.40625 C 512.890625 173.125 514.511719 172.574219 515.320313 172.296875 C 516.492188 176.894531 517.621094 181.507813 518.972656 186.066406 C 520.253906 189.90625 519.652344 193.964844 519.332031 197.90625 C 515.253906 232.277344 511.421875 266.675781 507.460938 301.066406 C 505.632813 311.125 506.382813 321.695313 503.011719 331.425781 C 502.082031 330.585938 500.332031 330.296875 500.183594 328.847656 C 498.882813 323.015625 498.59375 317.035156 497.953125 311.105469 C 494.382813 281.394531 491.222656 251.644531 487.621094 221.9375 C 486.921875 211.566406 484.8125 201.335938 484.351563 190.945313 C 485.203125 184.605469 487.570313 178.554688 488.902344 172.296875 "/>
<path style=" stroke:none;fill-rule:nonzero;fill:rgb(35.301208%,35.301208%,35.301208%);fill-opacity:1;" d="M 366.203125 263.1875 C 368.003906 263.175781 369.691406 263.894531 371.371094 264.476563 C 409.761719 278.195313 448.210938 291.714844 486.59375 305.464844 C 487.632813 313.875 489.070313 322.234375 490.363281 330.617188 C 453.390625 313.117188 417.332031 293.796875 380.972656 275.066406 C 375.742188 272.136719 370.101563 269.925781 365.101563 266.597656 C 365.070313 265.367188 365.261719 264.066406 366.203125 263.1875 "/>
<path style=" stroke:none;fill-rule:nonzero;fill:rgb(35.301208%,35.301208%,35.301208%);fill-opacity:1;" d="M 634.722656 263.804688 C 636.011719 263.4375 637.820313 262.496094 638.691406 264.105469 C 640.773438 266.425781 637.203125 267.734375 635.621094 268.6875 C 595.140625 289.40625 555.09375 310.996094 514.03125 330.554688 C 514.890625 322.175781 516.683594 313.925781 517.582031 305.546875 C 556.5625 291.457031 595.703125 277.785156 634.722656 263.804688 "/>
<path style=" stroke:none;fill-rule:nonzero;fill:rgb(35.301208%,35.301208%,35.301208%);fill-opacity:1;" d="M 76.503906 461.597656 C 77.503906 461.605469 79.492188 461.617188 80.492188 461.625 C 80.472656 466.167969 80.492188 470.707031 80.503906 475.257813 C 84.441406 473.617188 88.933594 472.347656 93.132813 473.746094 C 96.84375 475.117188 97.710938 479.496094 98.050781 482.964844 C 98.402344 489.207031 98.121094 495.457031 98.210938 501.707031 C 96.84375 501.726563 95.480469 501.757813 94.113281 501.796875 C 93.703125 494.207031 94.933594 486.394531 92.992188 478.976563 C 89.761719 475.386719 84.453125 477.535156 80.480469 478.484375 C 80.492188 486.234375 80.472656 493.984375 80.492188 501.734375 C 79.152344 501.734375 77.820313 501.746094 76.480469 501.757813 C 76.523438 488.367188 76.472656 474.984375 76.503906 461.597656 "/>
<path style=" stroke:none;fill-rule:nonzero;fill:rgb(35.301208%,35.301208%,35.301208%);fill-opacity:1;" d="M 195.113281 461.644531 C 196.492188 461.625 197.882813 461.617188 199.261719 461.597656 C 199.3125 474.976563 199.253906 488.355469 199.300781 501.746094 C 197.902344 501.734375 196.511719 501.734375 195.121094 501.746094 C 195.101563 488.375 195.121094 475.015625 195.113281 461.644531 "/>
<path style=" stroke:none;fill-rule:nonzero;fill:rgb(35.301208%,35.301208%,35.301208%);fill-opacity:1;" d="M 534.671875 461.644531 C 535.652344 461.636719 537.601563 461.617188 538.570313 461.605469 C 538.640625 474.984375 538.59375 488.367188 538.601563 501.757813 C 537.273438 501.734375 535.960938 501.714844 534.652344 501.714844 C 534.691406 488.367188 534.660156 475.007813 534.671875 461.644531 "/>
<path style=" stroke:none;fill-rule:nonzero;fill:rgb(35.301208%,35.301208%,35.301208%);fill-opacity:1;" d="M 666.183594 462.527344 C 667.550781 462.515625 668.941406 462.507813 670.34375 462.515625 C 670.320313 464.144531 670.332031 465.796875 670.34375 467.445313 C 668.960938 467.445313 667.582031 467.457031 666.222656 467.476563 C 666.191406 465.816406 666.183594 464.167969 666.183594 462.527344 "/>
<path style=" stroke:none;fill-rule:nonzero;fill:rgb(35.301208%,35.301208%,35.301208%);fill-opacity:1;" d="M 940.230469 462.507813 C 941.582031 462.496094 942.941406 462.507813 944.320313 462.515625 C 944.3125 464.144531 944.3125 465.785156 944.332031 467.4375 C 942.953125 467.445313 941.59375 467.457031 940.242188 467.484375 C 940.222656 465.816406 940.222656 464.15625 940.230469 462.507813 "/>
<path style=" stroke:none;fill-rule:nonzero;fill:rgb(35.301208%,35.301208%,35.301208%);fill-opacity:1;" d="M 0.0703125 462.875 C 9.121094 462.855469 18.160156 462.867188 27.203125 462.875 L 27.203125 466.847656 C 23.390625 467.046875 19.570313 467.054688 15.761719 467.035156 C 15.792969 478.605469 15.761719 490.1875 15.78125 501.757813 C 14.34375 501.746094 12.910156 501.734375 11.472656 501.734375 C 11.453125 490.175781 11.480469 478.617188 11.460938 467.046875 C 7.691406 467.035156 3.921875 467.027344 0.152344 467.054688 C 0.121094 465.65625 0.101563 464.265625 0.0703125 462.875 "/>
<path style=" stroke:none;fill-rule:nonzero;fill:rgb(35.301208%,35.301208%,35.301208%);fill-opacity:1;" d="M 310.921875 462.886719 C 312.300781 462.867188 313.691406 462.855469 315.09375 462.855469 C 318.101563 474.496094 320.910156 486.195313 323.792969 497.867188 C 324.59375 497.886719 326.183594 497.917969 326.980469 497.9375 C 329.753906 486.214844 332.621094 474.527344 335.683594 462.886719 C 337.09375 462.875 338.503906 462.875 339.921875 462.886719 C 336.710938 475.847656 333.300781 488.765625 330.082031 501.734375 C 326.910156 501.746094 323.753906 501.746094 320.59375 501.734375 C 317.542969 488.746094 313.890625 475.894531 310.921875 462.886719 "/>
<path style=" stroke:none;fill-rule:nonzero;fill:rgb(35.301208%,35.301208%,35.301208%);fill-opacity:1;" d="M 554.441406 462.875 C 563.550781 462.855469 572.660156 462.855469 581.773438 462.875 C 581.730469 464.257813 581.703125 465.644531 581.683594 467.035156 C 577.863281 467.035156 574.050781 467.046875 570.230469 467.046875 C 570.273438 478.597656 570.242188 490.15625 570.253906 501.714844 C 568.882813 501.726563 567.53125 501.757813 566.183594 501.796875 C 566.113281 490.207031 566.132813 478.625 566.171875 467.035156 C 562.292969 467.046875 558.402344 467.035156 554.523438 467.054688 C 554.480469 465.65625 554.460938 464.265625 554.441406 462.875 "/>
<path style=" stroke:none;fill-rule:nonzero;fill:rgb(35.301208%,35.301208%,35.301208%);fill-opacity:1;" d="M 749.710938 464.746094 C 755.292969 460.945313 762.542969 462.535156 768.742188 463.65625 C 768.660156 464.886719 768.59375 466.125 768.542969 467.375 C 763.191406 466.726563 757.082031 465.054688 752.203125 468.1875 C 748.332031 472.375 748.832031 478.625 748.703125 483.9375 C 748.871094 488.417969 748.820313 494.074219 752.890625 496.976563 C 757.722656 499.605469 763.421875 498.175781 768.550781 497.4375 C 768.601563 498.386719 768.703125 500.285156 768.753906 501.234375 C 762.792969 502.175781 756.050781 503.585938 750.511719 500.496094 C 744.523438 496.855469 744.84375 489.066406 744.503906 482.945313 C 744.832031 476.746094 744.28125 469.035156 749.710938 464.746094 "/>
<path style=" stroke:none;fill-rule:nonzero;fill:rgb(35.301208%,35.301208%,35.301208%);fill-opacity:1;" d="M 422.472656 465.207031 C 423.78125 465.1875 425.101563 465.175781 426.433594 465.175781 L 426.433594 473.695313 C 429.292969 473.695313 432.160156 473.695313 435.03125 473.707031 C 435.003906 474.957031 434.992188 476.207031 434.980469 477.476563 C 432.132813 477.464844 429.28125 477.464844 426.433594 477.445313 C 426.503906 482.925781 426.300781 488.417969 426.503906 493.894531 C 426.503906 495.636719 426.960938 497.984375 428.960938 498.476563 C 430.992188 498.847656 433.0625 498.457031 435.113281 498.375 C 435.222656 499.226563 435.441406 500.925781 435.550781 501.777344 C 432.410156 502.136719 429.0625 502.90625 426.003906 501.804688 C 423.222656 500.757813 422.941406 497.425781 422.621094 494.925781 C 422.253906 489.105469 422.5625 483.277344 422.453125 477.445313 C 421.132813 477.457031 419.820313 477.464844 418.511719 477.496094 C 418.511719 476.546875 418.523438 474.644531 418.523438 473.707031 C 419.832031 473.695313 421.152344 473.6875 422.480469 473.695313 C 422.480469 470.855469 422.472656 468.035156 422.472656 465.207031 "/>
<path style=" stroke:none;fill-rule:nonzero;fill:rgb(35.301208%,35.301208%,35.301208%);fill-opacity:1;" d="M 923.140625 465.15625 C 924.140625 465.1875 926.140625 465.234375 927.140625 465.265625 C 927.113281 468.074219 927.113281 470.894531 927.121094 473.714844 C 929.992188 473.707031 932.863281 473.695313 935.742188 473.675781 C 935.730469 474.9375 935.730469 476.195313 935.742188 477.464844 L 927.132813 477.464844 C 927.34375 483.785156 926.613281 490.195313 927.523438 496.464844 C 929.03125 499.894531 933.273438 498.277344 936.140625 498.367188 C 936.082031 499.136719 935.960938 500.675781 935.902344 501.445313 C 933.503906 502.835938 930.453125 502.316406 927.800781 502.175781 C 924.992188 501.765625 923.5625 498.945313 923.410156 496.367188 C 922.84375 490.097656 923.261719 483.785156 923.152344 477.496094 C 921.800781 477.464844 920.460938 477.445313 919.140625 477.4375 C 919.132813 476.195313 919.140625 474.957031 919.160156 473.726563 C 920.472656 473.695313 921.800781 473.6875 923.140625 473.675781 C 923.140625 470.835938 923.132813 467.984375 923.140625 465.15625 "/>
<path style=" stroke:none;fill-rule:nonzero;fill:rgb(35.301208%,35.301208%,35.301208%);fill-opacity:1;" d="M 32.070313 478.027344 C 29.441406 479.824219 29.5625 483.367188 29.09375 486.1875 C 33.871094 486.226563 38.652344 486.207031 43.441406 486.207031 C 43.171875 483.804688 43.101563 481.304688 42.003906 479.105469 C 39.671875 476.207031 35.050781 476.117188 32.070313 478.027344 M 31.242188 474.265625 C 35.503906 472.304688 41.242188 472.714844 44.582031 476.257813 C 47.582031 479.917969 47.503906 484.957031 47.390625 489.4375 C 41.3125 489.457031 35.222656 489.394531 29.140625 489.496094 C 29.542969 492.324219 29.222656 496.175781 32.320313 497.617188 C 36.710938 499.605469 41.742188 498.386719 46.371094 498.175781 C 46.382813 499.015625 46.402344 500.695313 46.421875 501.546875 C 41.253906 502.046875 35.753906 503.214844 30.730469 501.367188 C 25.742188 499.046875 25.011719 492.804688 25.003906 487.945313 C 25.191406 482.945313 26.121094 476.597656 31.242188 474.265625 "/>
<path style=" stroke:none;fill-rule:nonzero;fill:rgb(35.301208%,35.301208%,35.301208%);fill-opacity:1;" d="M 110.082031 475.175781 C 113.933594 473.355469 118.652344 472.195313 122.683594 474.125 C 125.84375 475.734375 126.261719 479.644531 126.660156 482.796875 C 127.082031 489.105469 126.773438 495.4375 126.851563 501.765625 C 125.472656 501.714844 124.09375 501.6875 122.710938 501.644531 C 122.523438 494.785156 123.09375 487.886719 122.382813 481.054688 C 122.273438 478.734375 120.160156 477.066406 117.941406 477.035156 C 115.003906 476.957031 111.941406 477.496094 109.410156 479.046875 C 109.132813 486.574219 109.371094 494.125 109.34375 501.667969 C 107.902344 501.695313 106.480469 501.726563 105.050781 501.765625 C 105.0625 492.304688 104.992188 482.847656 105.101563 473.386719 C 106.882813 473.636719 108.710938 473.875 110.082031 475.175781 "/>
<path style=" stroke:none;fill-rule:nonzero;fill:rgb(35.301208%,35.301208%,35.301208%);fill-opacity:1;" d="M 149.171875 474.117188 C 153.382813 472.304688 158.132813 473.417969 162.523438 473.886719 C 162.472656 474.777344 162.390625 476.566406 162.34375 477.457031 C 158.0625 476.964844 153.53125 476.445313 149.570313 478.554688 C 147.550781 484.207031 146.84375 490.886719 149.621094 496.394531 C 152.992188 499.804688 158.203125 498.265625 162.433594 498.097656 C 162.460938 499.265625 162.503906 500.4375 162.542969 501.617188 C 157.78125 502.136719 152.421875 503.355469 148.042969 500.757813 C 143.742188 497.636719 143.722656 491.726563 143.703125 486.9375 C 143.910156 482.316406 144.53125 476.476563 149.171875 474.117188 "/>
<path style=" stroke:none;fill-rule:nonzero;fill:rgb(35.301208%,35.301208%,35.301208%);fill-opacity:1;" d="M 172.292969 489.445313 C 169.472656 491.554688 169.800781 497.214844 173.191406 498.65625 C 176.621094 499.355469 180.003906 497.996094 183.261719 497.097656 C 183.261719 494.054688 183.261719 491.007813 183.28125 487.964844 C 179.632813 488.417969 175.761719 488.027344 172.292969 489.445313 M 168.082031 474.316406 C 172.300781 473.566406 176.613281 472.855469 180.910156 473.316406 C 183.832031 473.6875 186.632813 475.835938 186.902344 478.925781 C 187.730469 484.855469 186.78125 490.875 187.371094 496.824219 C 188.753906 498.625 190.84375 499.984375 190.542969 502.617188 C 188.113281 502.1875 185.761719 501.457031 183.59375 500.296875 C 179.613281 501.707031 175.292969 503.054688 171.070313 501.9375 C 165.273438 499.816406 164.691406 490.714844 169.222656 487.035156 C 173.632813 484.945313 178.703125 485.324219 183.421875 484.597656 C 183.050781 482.066406 183.632813 478.335938 180.640625 477.257813 C 176.480469 476.464844 172.230469 477.367188 168.0625 477.625 C 168.0625 476.515625 168.070313 475.417969 168.082031 474.316406 "/>
<path style=" stroke:none;fill-rule:nonzero;fill:rgb(35.301208%,35.301208%,35.301208%);fill-opacity:1;" d="M 221.503906 489.617188 C 220.980469 492.554688 219.832031 496.894531 223.160156 498.585938 C 226.621094 499.375 230.070313 498.054688 233.390625 497.1875 C 233.441406 494.105469 233.453125 491.035156 233.460938 487.964844 C 229.441406 488.195313 225.390625 488.507813 221.503906 489.617188 M 218.441406 474.484375 C 222.480469 473.226563 226.800781 472.996094 231.003906 473.335938 C 234.0625 473.566406 236.902344 475.984375 237.230469 479.105469 C 237.792969 485.316406 237.261719 491.554688 237.5625 497.785156 C 238.582031 498.304688 239.613281 498.824219 240.652344 499.367188 C 240.550781 500.445313 240.441406 501.546875 240.351563 502.644531 C 238.082031 502.085938 235.882813 501.347656 233.800781 500.304688 C 230.023438 501.675781 225.980469 502.847656 221.933594 502.136719 C 215.332031 500.507813 214.441406 489.675781 220.3125 486.617188 C 224.5625 485.097656 229.160156 485.214844 233.59375 484.597656 C 233.222656 482.066406 233.753906 478.195313 230.703125 477.226563 C 226.480469 476.527344 222.203125 477.457031 217.972656 477.605469 C 218.09375 476.824219 218.332031 475.265625 218.441406 474.484375 "/>
<path style=" stroke:none;fill-rule:nonzero;fill:rgb(35.301208%,35.301208%,35.301208%);fill-opacity:1;" d="M 249.78125 475.355469 C 253.453125 473.347656 257.953125 472.355469 261.992188 473.835938 C 265.191406 475.285156 266.382813 479.035156 266.503906 482.296875 C 266.773438 488.777344 266.542969 495.257813 266.640625 501.746094 C 265.332031 501.726563 264.023438 501.726563 262.710938 501.726563 C 262.230469 494.066406 264.050781 485.9375 261.210938 478.636719 C 257.933594 475.367188 252.8125 477.707031 249.050781 478.804688 C 249.070313 486.445313 249.023438 494.074219 249.0625 501.714844 C 247.753906 501.726563 246.453125 501.746094 245.152344 501.777344 C 245.160156 492.304688 245.113281 482.855469 245.191406 473.394531 C 246.882813 473.636719 248.652344 473.886719 249.78125 475.355469 "/>
<path style=" stroke:none;fill-rule:nonzero;fill:rgb(35.301208%,35.301208%,35.301208%);fill-opacity:1;" d="M 346.933594 479.917969 C 345.582031 484.386719 345.941406 489.226563 346.382813 493.816406 C 347.253906 500.546875 359.371094 500.566406 360.222656 493.804688 C 361.203125 488.726563 360.832031 483.4375 359.261719 478.507813 C 355.472656 476.515625 349.503906 475.675781 346.933594 479.917969 M 349.300781 473.566406 C 353.703125 472.714844 359.152344 472.867188 362.261719 476.597656 C 365.34375 480.996094 365.300781 486.796875 364.8125 491.945313 C 364.523438 496.117188 362.390625 500.816406 357.953125 501.847656 C 353.292969 502.765625 347.300781 502.886719 344.070313 498.757813 C 341.28125 494.386719 341.351563 488.90625 341.773438 483.917969 C 342.183594 479.457031 344.382813 474.394531 349.300781 473.566406 "/>
<path style=" stroke:none;fill-rule:nonzero;fill:rgb(35.301208%,35.301208%,35.301208%);fill-opacity:1;" d="M 397.570313 489.585938 C 396.921875 492.4375 395.703125 496.257813 398.640625 498.265625 C 402.132813 499.785156 405.960938 497.9375 409.433594 497.144531 C 409.472656 494.074219 409.472656 491.015625 409.480469 487.945313 C 405.472656 488.226563 401.441406 488.457031 397.570313 489.585938 M 394.222656 474.296875 C 400.070313 473.625 407.851563 471.035156 412.242188 476.355469 C 414.640625 482.527344 412.871094 489.367188 413.460938 495.824219 C 413.140625 497.847656 415.382813 498.527344 416.601563 499.636719 C 416.523438 500.636719 416.441406 501.644531 416.371094 502.65625 C 414.101563 502.074219 411.890625 501.335938 409.800781 500.296875 C 405.371094 501.847656 400.0625 503.617188 395.652344 501.167969 C 391.441406 497.816406 391.261719 490.035156 395.792969 486.867188 C 400.121094 485.015625 404.992188 485.277344 409.582031 484.617188 C 409.3125 482.046875 409.792969 478.226563 406.722656 477.226563 C 402.582031 476.507813 398.371094 477.367188 394.230469 477.667969 C 394.222656 476.535156 394.222656 475.40625 394.222656 474.296875 "/>
<path style=" stroke:none;fill-rule:nonzero;fill:rgb(35.301208%,35.301208%,35.301208%);fill-opacity:1;" d="M 456.730469 477.777344 C 453.792969 479.714844 453.691406 483.765625 453.53125 486.945313 C 453.613281 490.367188 453.390625 494.324219 455.78125 497.097656 C 458.800781 499.644531 463.050781 498.757813 466.441406 497.535156 C 467.851563 494.894531 468.691406 491.964844 468.570313 488.957031 C 468.503906 485.277344 468.902344 480.746094 465.882813 478.046875 C 463.152344 476.496094 459.5625 476.507813 456.730469 477.777344 M 457.34375 473.496094 C 462.183594 472.535156 468.480469 473.214844 471.03125 478.085938 C 473.242188 483.9375 473.230469 490.617188 471.460938 496.585938 C 470.082031 500.90625 465.121094 502.585938 460.972656 502.347656 C 456.78125 502.636719 452.042969 500.734375 450.582031 496.515625 C 449.082031 491.484375 449.191406 486.054688 450.140625 480.9375 C 450.660156 477.234375 453.710938 474.207031 457.34375 473.496094 "/>
<path style=" stroke:none;fill-rule:nonzero;fill:rgb(35.301208%,35.301208%,35.301208%);fill-opacity:1;" d="M 483.28125 475.507813 C 487.0625 473.457031 491.722656 472.257813 495.863281 473.917969 C 499.222656 475.484375 500.230469 479.507813 500.410156 482.90625 C 500.691406 489.175781 500.460938 495.457031 500.542969 501.734375 C 499.152344 501.714844 497.773438 501.714844 496.402344 501.714844 C 496.320313 495.464844 496.691406 489.195313 496.203125 482.957031 C 495.921875 480.90625 495.722656 478.234375 493.433594 477.445313 C 489.871094 476.195313 486.191406 477.847656 482.78125 478.816406 C 482.792969 486.464844 482.773438 494.125 482.792969 501.777344 C 481.460938 501.734375 480.140625 501.695313 478.820313 501.667969 C 478.910156 492.335938 478.640625 482.984375 479.003906 473.65625 L 482.332031 473.65625 C 482.570313 474.117188 483.042969 475.046875 483.28125 475.507813 "/>
<path style=" stroke:none;fill-rule:nonzero;fill:rgb(35.301208%,35.301208%,35.301208%);fill-opacity:1;" d="M 511.503906 489.605469 C 509.171875 491.996094 509.382813 496.617188 512.242188 498.507813 C 515.671875 499.527344 519.203125 498.027344 522.523438 497.207031 C 522.582031 494.125 522.582031 491.046875 522.621094 487.976563 C 518.933594 488.507813 514.902344 487.875 511.503906 489.605469 M 507.570313 474.515625 C 511.820313 473.226563 516.382813 472.875 520.792969 473.40625 C 523.992188 473.875 526.410156 476.785156 526.652344 479.957031 C 527.121094 486.027344 526.410156 492.136719 527.191406 498.1875 C 527.871094 498.484375 529.230469 499.085938 529.910156 499.386719 C 529.753906 500.496094 529.59375 501.605469 529.433594 502.726563 C 527.230469 502.085938 525.082031 501.324219 523.082031 500.226563 C 519.222656 501.667969 515.023438 502.984375 510.890625 502.027344 C 504.453125 500.175781 503.851563 489.507813 509.640625 486.566406 C 513.871094 485.117188 518.421875 485.195313 522.8125 484.585938 C 522.582031 482.136719 522.242188 479.707031 521.421875 477.386719 C 516.683594 476.625 511.890625 477.246094 507.152344 477.617188 C 507.261719 476.835938 507.460938 475.285156 507.570313 474.515625 "/>
<path style=" stroke:none;fill-rule:nonzero;fill:rgb(35.301208%,35.301208%,35.301208%);fill-opacity:1;" d="M 585.183594 477.234375 C 588.363281 475.597656 591.632813 474.117188 595.023438 472.957031 C 595.070313 474.40625 595.121094 475.867188 595.171875 477.335938 C 591.84375 478.355469 588.320313 479.1875 585.472656 481.277344 C 585.070313 488.054688 585.410156 494.867188 585.34375 501.667969 C 583.921875 501.707031 582.511719 501.734375 581.113281 501.785156 C 581.132813 492.417969 581.070313 483.054688 581.140625 473.695313 C 582.53125 473.695313 583.941406 473.707031 585.363281 473.726563 C 585.3125 474.605469 585.222656 476.355469 585.183594 477.234375 "/>
<path style=" stroke:none;fill-rule:nonzero;fill:rgb(35.301208%,35.301208%,35.301208%);fill-opacity:1;" d="M 602.582031 489.695313 C 602.320313 492.585938 600.890625 496.945313 604.320313 498.507813 C 607.761719 499.554688 611.300781 497.964844 614.632813 497.15625 C 614.683594 494.085938 614.691406 491.027344 614.722656 487.964844 C 610.632813 488.1875 606.511719 488.464844 602.582031 489.695313 M 599.601563 474.464844 C 603.28125 473.355469 607.171875 473.097656 611.011719 473.207031 C 614.210938 473.226563 617.773438 475.167969 618.273438 478.597656 C 619.203125 484.675781 618.171875 490.867188 618.800781 496.964844 C 619.402344 498.246094 620.863281 498.765625 621.890625 499.675781 C 621.742188 500.675781 621.601563 501.6875 621.472656 502.707031 C 619.230469 502.027344 617.03125 501.265625 614.910156 500.304688 C 610.480469 501.867188 605.183594 503.617188 600.78125 501.117188 C 596.671875 497.714844 596.460938 489.945313 601.003906 486.847656 C 605.382813 484.996094 610.261719 485.285156 614.882813 484.554688 C 614.710938 482.105469 614.261719 479.6875 613.351563 477.40625 C 608.601563 476.617188 603.800781 477.246094 599.050781 477.625 C 599.191406 476.835938 599.460938 475.257813 599.601563 474.464844 "/>
<path style=" stroke:none;fill-rule:nonzero;fill:rgb(35.301208%,35.301208%,35.301208%);fill-opacity:1;" d="M 642.140625 475.355469 C 646.011719 473.4375 650.773438 472.1875 654.902344 474.046875 C 658.242188 475.65625 658.722656 479.707031 659.03125 482.976563 C 659.421875 489.226563 659.132813 495.484375 659.222656 501.746094 C 657.882813 501.734375 656.550781 501.726563 655.230469 501.734375 C 655.160156 495.804688 655.371094 489.886719 655.183594 483.964844 C 655.050781 481.445313 654.550781 478.117188 651.730469 477.277344 C 648.292969 476.386719 644.882813 477.824219 641.621094 478.746094 C 641.632813 486.40625 641.621094 494.074219 641.640625 501.734375 C 640.253906 501.746094 638.882813 501.757813 637.511719 501.777344 C 637.503906 492.4375 637.53125 483.097656 637.492188 473.757813 C 638.410156 473.734375 640.253906 473.6875 641.160156 473.65625 C 641.410156 474.085938 641.902344 474.925781 642.140625 475.355469 "/>
<path style=" stroke:none;fill-rule:nonzero;fill:rgb(35.301208%,35.301208%,35.301208%);fill-opacity:1;" d="M 682.171875 475.355469 C 686.03125 473.425781 690.78125 472.195313 694.902344 474.035156 C 698.222656 475.644531 698.792969 479.667969 699.082031 482.957031 C 699.480469 489.207031 699.191406 495.484375 699.273438 501.746094 C 697.921875 501.734375 696.582031 501.734375 695.242188 501.734375 C 694.8125 494.296875 696.273438 486.597656 694.242188 479.347656 C 691.402344 475.035156 685.542969 477.695313 681.632813 478.734375 C 681.632813 486.40625 681.632813 494.074219 681.652344 501.746094 C 680.273438 501.734375 678.902344 501.746094 677.53125 501.757813 C 677.601563 492.425781 677.542969 483.085938 677.550781 473.765625 C 678.441406 473.734375 680.222656 473.675781 681.113281 473.65625 C 681.371094 474.074219 681.910156 474.925781 682.171875 475.355469 "/>
<g clip-path="url(#clip1)" clip-rule="nonzero">
<path style=" stroke:none;fill-rule:nonzero;fill:rgb(35.301208%,35.301208%,35.301208%);fill-opacity:1;" d="M 710.683594 510.207031 C 714.382813 511.847656 718.773438 511.65625 722.5625 510.355469 C 725.441406 508.847656 724.410156 505.15625 724.433594 502.527344 C 720.402344 501.574219 716.230469 501.136719 712.101563 501.394531 C 708.722656 502.847656 707.953125 507.785156 710.683594 510.207031 M 710.011719 485.847656 C 711.320313 489.605469 716.261719 489.054688 719.34375 488.277344 C 722.890625 486.367188 721.472656 481.714844 721.441406 478.476563 C 718.863281 477.117188 715.882813 475.917969 712.980469 477.007813 C 709.203125 477.875 708.960938 482.835938 710.011719 485.847656 M 706.160156 478.246094 C 707.652344 474.425781 712.132813 472.867188 715.953125 473.226563 C 720.410156 473.667969 724.890625 473.984375 729.382813 473.644531 C 729.382813 474.574219 729.371094 476.4375 729.371094 477.367188 C 727.78125 477.304688 726.210938 477.246094 724.640625 477.1875 C 726.433594 481.207031 726.710938 486.285156 723.792969 489.855469 C 720.761719 492.574219 716.34375 491.984375 712.582031 492.175781 C 712.402344 493.847656 710.710938 496.066406 712.691406 497.214844 C 717.203125 498.464844 722.402344 496.765625 726.53125 499.4375 C 731.101563 503.527344 729.242188 512.835938 722.933594 514.105469 C 717.640625 515.597656 711.113281 515.875 706.652344 512.207031 C 703.910156 508.355469 704.890625 502.625 708.703125 499.824219 C 707.933594 497.035156 707.933594 494.117188 709.273438 491.496094 C 705.351563 488.316406 704.550781 482.816406 706.160156 478.246094 "/>
</g>
<path style=" stroke:none;fill-rule:nonzero;fill:rgb(35.301208%,35.301208%,35.301208%);fill-opacity:1;" d="M 780.34375 477.566406 C 775.273438 480.636719 777.113281 487.996094 777.160156 492.976563 C 777.171875 500.265625 789.691406 500.886719 791.09375 494.125 C 791.773438 489.765625 791.871094 485.207031 790.851563 480.90625 C 789.773438 476.417969 783.871094 476.214844 780.34375 477.566406 M 780.363281 473.527344 C 784.5625 472.757813 789.5625 472.894531 792.761719 476.136719 C 795.742188 479.644531 795.890625 484.527344 795.832031 488.917969 C 795.800781 492.667969 795.300781 496.816406 792.601563 499.65625 C 789.292969 502.886719 784.113281 502.597656 779.902344 501.925781 C 775.292969 501.007813 772.871094 496.234375 772.640625 491.90625 C 772.34375 487.105469 772.070313 481.894531 774.550781 477.566406 C 775.722656 475.394531 778.011719 474.054688 780.363281 473.527344 "/>
<path style=" stroke:none;fill-rule:nonzero;fill:rgb(35.301208%,35.301208%,35.301208%);fill-opacity:1;" d="M 805.992188 477.40625 C 809.082031 475.574219 812.371094 474.125 815.761719 472.945313 C 815.800781 474.40625 815.851563 475.886719 815.910156 477.367188 C 812.542969 478.265625 809.292969 479.507813 806.160156 481.015625 C 806.0625 487.925781 806.121094 494.835938 806.132813 501.746094 C 804.652344 501.707031 803.191406 501.65625 801.730469 501.617188 C 801.800781 492.304688 801.773438 482.996094 801.773438 473.695313 C 803.203125 473.6875 804.652344 473.6875 806.121094 473.695313 C 806.09375 474.617188 806.023438 476.476563 805.992188 477.40625 "/>
<path style=" stroke:none;fill-rule:nonzero;fill:rgb(35.301208%,35.301208%,35.301208%);fill-opacity:1;" d="M 824.332031 478.925781 C 824.351563 485.347656 824.300781 491.777344 824.363281 498.195313 C 828.140625 498.507813 832.710938 499.777344 835.773438 496.777344 C 838.480469 493.507813 838.390625 488.925781 838.152344 484.925781 C 837.800781 482.226563 837.171875 478.886719 834.480469 477.566406 C 831.101563 476.097656 827.570313 477.957031 824.332031 478.925781 M 825.003906 475.316406 C 828.921875 473.246094 834.121094 471.976563 838.050781 474.695313 C 842.160156 477.695313 842.082031 483.324219 842.222656 487.894531 C 842.03125 492.1875 841.972656 497.355469 838.210938 500.214844 C 834.261719 503.257813 828.921875 502.144531 824.3125 502.054688 C 824.34375 506.085938 824.332031 510.117188 824.363281 514.15625 C 823.34375 514.175781 821.3125 514.226563 820.292969 514.246094 C 820.253906 500.65625 820.300781 487.066406 820.273438 473.484375 C 821.980469 473.675781 823.871094 473.746094 825.003906 475.316406 "/>
<path style=" stroke:none;fill-rule:nonzero;fill:rgb(35.301208%,35.301208%,35.301208%);fill-opacity:1;" d="M 852.761719 478.746094 C 851.371094 484.214844 850.730469 490.144531 852.492188 495.605469 C 854.480469 499.167969 859.5625 499.445313 862.953125 497.90625 C 865.980469 496.507813 865.933594 492.726563 866.210938 489.894531 C 866.273438 486.265625 866.390625 482.367188 864.761719 479.046875 C 861.640625 475.714844 856.332031 476.667969 852.761719 478.746094 M 854.410156 473.6875 C 858.992188 472.65625 864.921875 472.746094 868.003906 476.894531 C 870.972656 481.257813 870.683594 486.867188 870.382813 491.90625 C 870.183594 496.296875 867.652344 501.175781 862.941406 501.957031 C 858.3125 502.765625 852.402344 502.746094 849.441406 498.425781 C 846.730469 494.105469 847.042969 488.714844 847.363281 483.847656 C 847.683594 479.546875 849.863281 474.785156 854.410156 473.6875 "/>
<path style=" stroke:none;fill-rule:nonzero;fill:rgb(35.301208%,35.301208%,35.301208%);fill-opacity:1;" d="M 876.5625 473.667969 C 877.953125 473.6875 879.351563 473.707031 880.773438 473.734375 C 880.730469 474.945313 880.703125 476.15625 880.683594 477.386719 C 883.800781 475.574219 887.101563 474.117188 890.511719 472.9375 C 890.5625 474.386719 890.632813 475.847656 890.703125 477.316406 C 887.382813 478.246094 884.160156 479.457031 881.023438 480.847656 C 880.640625 487.804688 880.863281 494.785156 880.820313 501.757813 C 879.371094 501.734375 877.953125 501.714844 876.53125 501.707031 C 876.570313 492.355469 876.542969 483.015625 876.5625 473.667969 "/>
<path style=" stroke:none;fill-rule:nonzero;fill:rgb(35.301208%,35.301208%,35.301208%);fill-opacity:1;" d="M 958.222656 477.425781 C 955.34375 478.257813 954.800781 481.585938 954.382813 484.105469 C 954.003906 488.144531 953.882813 492.496094 955.730469 496.226563 C 958.003906 499.265625 962.722656 499.375 965.910156 497.835938 C 969.320313 495.886719 969.183594 491.386719 969.273438 487.976563 C 969.160156 484.65625 969.371094 480.496094 966.582031 478.15625 C 964.171875 476.496094 960.902344 476.585938 958.222656 477.425781 M 957.34375 473.667969 C 962.113281 472.574219 968.453125 472.855469 971.3125 477.484375 C 973.882813 482.835938 973.703125 489.144531 972.613281 494.855469 C 972.050781 498.296875 969.402344 501.285156 965.941406 501.957031 C 961.273438 502.765625 955.351563 502.777344 952.3125 498.484375 C 949.441406 494.226563 950.222656 488.707031 950.320313 483.855469 C 950.300781 479.464844 952.820313 474.734375 957.34375 473.667969 "/>
<g clip-path="url(#clip2)" clip-rule="nonzero">
<path style=" stroke:none;fill-rule:nonzero;fill:rgb(35.301208%,35.301208%,35.301208%);fill-opacity:1;" d="M 984.152344 475.257813 C 988.0625 473.417969 992.753906 472.195313 996.890625 474.066406 C 1000.089844 475.835938 1000.851563 479.816406 1001.121094 483.15625 C 1001.359375 489.324219 1001.160156 495.507813 1001.21875 501.6875 C 999.820313 501.707031 998.433594 501.734375 997.070313 501.777344 C 996.652344 494.207031 998.070313 486.355469 995.941406 478.996094 C 992.832031 475.207031 987.371094 477.726563 983.511719 478.765625 C 983.511719 486.425781 983.53125 494.074219 983.492188 501.734375 C 982.152344 501.726563 980.8125 501.726563 979.503906 501.734375 C 979.570313 492.296875 979.480469 482.847656 979.550781 473.40625 C 981.191406 473.675781 983.042969 473.777344 984.152344 475.257813 "/>
</g>
<path style=" stroke:none;fill-rule:nonzero;fill:rgb(35.301208%,35.301208%,35.301208%);fill-opacity:1;" d="M 57.203125 474.265625 C 61.492188 472.265625 66.371094 473.417969 70.871094 473.855469 C 70.78125 475.046875 70.703125 476.234375 70.621094 477.445313 C 66.09375 477.214844 58.972656 475.386719 57.011719 481.035156 C 56.03125 485.714844 55.730469 490.964844 57.453125 495.507813 C 60.242188 500.007813 66.332031 498.335938 70.691406 498.046875 C 70.792969 499.214844 70.890625 500.394531 71.003906 501.585938 C 65.640625 502.1875 58.710938 503.847656 54.671875 499.144531 C 52.03125 494.976563 51.863281 489.707031 52.183594 484.925781 C 52.753906 481.054688 53.382813 476.304688 57.203125 474.265625 "/>
<path style=" stroke:none;fill-rule:nonzero;fill:rgb(35.301208%,35.301208%,35.301208%);fill-opacity:1;" d="M 133.730469 473.734375 C 135.152344 473.707031 136.570313 473.675781 138.003906 473.65625 C 138.023438 483.027344 137.980469 492.394531 138.011719 501.765625 C 136.582031 501.734375 135.152344 501.714844 133.722656 501.695313 C 133.730469 492.375 133.710938 483.054688 133.730469 473.734375 "/>
<path style=" stroke:none;fill-rule:nonzero;fill:rgb(35.301208%,35.301208%,35.301208%);fill-opacity:1;" d="M 439.5625 473.714844 C 440.582031 473.6875 442.621094 473.636719 443.640625 473.617188 C 443.710938 482.976563 443.640625 492.347656 443.683594 501.707031 C 442.300781 501.726563 440.933594 501.734375 439.5625 501.765625 C 439.5625 492.417969 439.582031 483.066406 439.5625 473.714844 "/>
<path style=" stroke:none;fill-rule:nonzero;fill:rgb(35.301208%,35.301208%,35.301208%);fill-opacity:1;" d="M 626.191406 501.765625 C 626.210938 492.375 626.160156 482.996094 626.230469 473.617188 C 627.242188 473.636719 629.261719 473.675781 630.28125 473.695313 C 630.300781 483.035156 630.253906 492.386719 630.3125 501.726563 C 628.933594 501.734375 627.5625 501.746094 626.191406 501.765625 "/>
<path style=" stroke:none;fill-rule:nonzero;fill:rgb(35.301208%,35.301208%,35.301208%);fill-opacity:1;" d="M 666.191406 501.6875 C 666.203125 492.335938 666.160156 482.976563 666.222656 473.625 C 667.242188 473.644531 669.300781 473.6875 670.332031 473.707031 C 670.34375 483.066406 670.351563 492.4375 670.320313 501.796875 C 668.941406 501.757813 667.5625 501.714844 666.191406 501.6875 "/>
<path style=" stroke:none;fill-rule:nonzero;fill:rgb(30.979919%,51.367188%,59.568787%);fill-opacity:1;" d="M 584.921875 76.695313 C 597.972656 76.195313 610.882813 73.855469 623.933594 73.375 C 630.070313 72.777344 634.863281 80.085938 632.441406 85.566406 C 631.460938 88.046875 629.351563 89.777344 627.433594 91.515625 C 618.410156 99.246094 609.460938 107.054688 600.5625 114.925781 C 590.0625 112.1875 579.671875 109.046875 569.230469 106.074219 C 574.332031 96.214844 579.722656 86.496094 584.921875 76.695313 "/>
<path style=" stroke:none;fill-rule:nonzero;fill:rgb(14.109802%,70.506287%,73.631287%);fill-opacity:1;" d="M 370.613281 84.9375 C 369.863281 80.316406 373.441406 75.695313 377.902344 74.746094 C 382.28125 74.445313 386.640625 75.335938 391.011719 75.585938 C 399.8125 76.605469 408.710938 76.574219 417.492188 77.875 C 419.230469 78.007813 419.753906 79.964844 420.601563 81.195313 C 425.191406 89.847656 430.070313 98.347656 434.660156 107.007813 C 425.480469 109.675781 416.320313 112.414063 407.160156 115.164063 C 405.441406 115.574219 403.320313 116.347656 401.933594 114.816406 C 393.410156 107.734375 385.152344 100.347656 376.632813 93.246094 C 374.042969 91.046875 370.960938 88.574219 370.613281 84.9375 "/>
<path style=" stroke:none;fill-rule:nonzero;fill:rgb(9.812927%,45.092773%,41.575623%);fill-opacity:1;" d="M 530.460938 204.027344 C 539.792969 209.425781 549.121094 214.847656 558.613281 219.976563 C 559.921875 232.945313 561.121094 245.957031 562.253906 258.957031 C 563.023438 263.296875 560.410156 267.847656 556.203125 269.234375 C 552.542969 270.777344 548.410156 268.757813 546.101563 265.835938 C 539.132813 257.347656 532.222656 248.785156 525.042969 240.464844 C 526.542969 228.285156 528.570313 216.164063 530.460938 204.027344 "/>
<path style=" stroke:none;fill-rule:nonzero;fill:rgb(20.384216%,20.384216%,20.384216%);fill-opacity:1;" d="M 911.601563 384.175781 C 913.261719 380.605469 920.292969 379.824219 920.953125 384.375 C 918.953125 384.894531 915.863281 383.625 914.792969 385.976563 C 913.730469 387.414063 915.003906 388.996094 915.390625 390.414063 C 917.550781 389.785156 919.722656 389.136719 921.902344 388.484375 C 922.140625 389.4375 922.402344 390.394531 922.683594 391.367188 C 918.730469 392.246094 914.761719 393.007813 910.78125 393.664063 L 910.480469 391.535156 C 911.023438 391.40625 912.113281 391.144531 912.660156 391.007813 C 911.523438 388.957031 910.332031 386.457031 911.601563 384.175781 "/>
<path style=" stroke:none;fill-rule:nonzero;fill:rgb(20.384216%,20.384216%,20.384216%);fill-opacity:1;" d="M 622.28125 388.65625 C 623.8125 388.664063 625.351563 388.675781 626.902344 388.707031 C 626.871094 390.554688 626.863281 392.414063 626.863281 394.277344 C 625.320313 394.277344 623.800781 394.285156 622.28125 394.304688 C 622.273438 392.414063 622.273438 390.535156 622.28125 388.65625 "/>
<path style=" stroke:none;fill-rule:nonzero;fill:rgb(20.384216%,20.384216%,20.384216%);fill-opacity:1;" d="M 266.230469 446.867188 C 267.78125 446.855469 269.332031 446.847656 270.890625 446.855469 C 270.910156 448.726563 270.933594 450.605469 270.953125 452.496094 C 269.363281 452.484375 267.792969 452.484375 266.210938 452.484375 C 266.210938 450.605469 266.210938 448.734375 266.230469 446.867188 "/>
<path style=" stroke:none;fill-rule:nonzero;fill:rgb(20.776367%,20.776367%,20.776367%);fill-opacity:1;" d="M 141.613281 404.355469 C 140.921875 410.757813 140.890625 417.207031 141.503906 423.605469 C 146.132813 423.667969 150.753906 423.644531 155.382813 423.644531 C 155.070313 418.136719 156.351563 412.234375 153.953125 407.066406 C 151.082031 403.175781 145.792969 404.066406 141.613281 404.355469 M 173.761719 387.507813 C 175.5625 387.484375 177.351563 387.464844 179.152344 387.464844 C 179.183594 401.125 179.171875 414.785156 179.160156 428.457031 C 172.980469 427.90625 166.121094 430.046875 160.53125 426.617188 C 160.582031 427.085938 160.691406 428.015625 160.742188 428.484375 C 146.683594 428.464844 132.621094 428.476563 118.5625 428.484375 C 118.542969 426.855469 118.53125 425.234375 118.503906 423.625 C 124.460938 423.65625 130.410156 423.65625 136.371094 423.636719 C 135.160156 416.015625 135.542969 408.214844 137.113281 400.6875 C 143.503906 398.875 151.171875 397.644531 156.882813 401.894531 C 161.871094 406.585938 160.351563 413.996094 160.710938 420.117188 C 160.480469 422.035156 162.570313 423.226563 164.191406 423.515625 C 167.371094 423.824219 170.5625 423.605469 173.753906 423.636719 C 173.78125 411.585938 173.753906 399.546875 173.761719 387.507813 "/>
<path style=" stroke:none;fill-rule:nonzero;fill:rgb(20.776367%,20.776367%,20.776367%);fill-opacity:1;" d="M 189.132813 387.484375 C 190.882813 387.476563 192.640625 387.476563 194.402344 387.484375 C 194.382813 401.15625 194.402344 414.824219 194.390625 428.496094 C 192.640625 428.484375 190.902344 428.484375 189.160156 428.496094 C 189.113281 414.824219 189.152344 401.15625 189.132813 387.484375 "/>
<path style=" stroke:none;fill-rule:nonzero;fill:rgb(20.776367%,20.776367%,20.776367%);fill-opacity:1;" d="M 327.09375 388.675781 C 328.640625 388.664063 330.191406 388.65625 331.753906 388.65625 C 331.742188 390.535156 331.730469 392.425781 331.722656 394.316406 C 330.160156 394.296875 328.601563 394.285156 327.042969 394.285156 C 327.050781 392.40625 327.0625 390.535156 327.09375 388.675781 "/>
<path style=" stroke:none;fill-rule:nonzero;fill:rgb(20.776367%,20.776367%,20.776367%);fill-opacity:1;" d="M 354.433594 388.65625 C 356.050781 388.664063 357.683594 388.6875 359.320313 388.707031 C 359.300781 390.554688 359.300781 392.414063 359.300781 394.285156 C 357.683594 394.277344 356.0625 394.277344 354.453125 394.296875 C 354.433594 392.40625 354.433594 390.535156 354.433594 388.65625 "/>
<path style=" stroke:none;fill-rule:nonzero;fill:rgb(20.776367%,20.776367%,20.776367%);fill-opacity:1;" d="M 362.113281 388.644531 C 363.660156 388.65625 365.210938 388.664063 366.773438 388.664063 C 366.792969 390.535156 366.800781 392.40625 366.820313 394.285156 C 365.253906 394.285156 363.691406 394.296875 362.140625 394.324219 C 362.121094 392.425781 362.113281 390.535156 362.113281 388.644531 "/>
<path style=" stroke:none;fill-rule:nonzero;fill:rgb(20.776367%,20.776367%,20.776367%);fill-opacity:1;" d="M 378.503906 387.484375 C 380.230469 387.476563 381.972656 387.476563 383.722656 387.484375 C 383.730469 401.144531 383.742188 414.816406 383.722656 428.476563 C 379.640625 428.507813 375.5625 428.464844 371.492188 428.496094 C 371.511719 426.867188 371.53125 425.246094 371.5625 423.636719 C 373.863281 423.644531 376.183594 423.644531 378.492188 423.644531 C 378.492188 411.597656 378.472656 399.535156 378.503906 387.484375 "/>
<path style=" stroke:none;fill-rule:nonzero;fill:rgb(20.776367%,20.776367%,20.776367%);fill-opacity:1;" d="M 393.710938 387.464844 C 395.503906 387.464844 397.292969 387.476563 399.101563 387.484375 C 399.113281 401.144531 399.082031 414.804688 399.101563 428.457031 C 397.300781 428.476563 395.511719 428.484375 393.722656 428.507813 C 393.710938 414.824219 393.710938 401.144531 393.710938 387.464844 "/>
<path style=" stroke:none;fill-rule:nonzero;fill:rgb(20.776367%,20.776367%,20.776367%);fill-opacity:1;" d="M 562.253906 423.617188 C 562.222656 411.566406 562.230469 399.515625 562.242188 387.464844 C 563.992188 387.464844 565.753906 387.476563 567.511719 387.484375 C 567.511719 399.535156 567.523438 411.585938 567.511719 423.636719 C 569.78125 423.644531 572.042969 423.636719 574.332031 423.644531 C 574.300781 425.257813 574.292969 426.875 574.292969 428.496094 C 568.023438 428.484375 561.753906 428.484375 555.480469 428.496094 C 555.523438 426.875 555.5625 425.257813 555.601563 423.644531 C 557.8125 423.644531 560.03125 423.636719 562.253906 423.617188 "/>
<path style=" stroke:none;fill-rule:nonzero;fill:rgb(20.776367%,20.776367%,20.776367%);fill-opacity:1;" d="M 581.140625 387.484375 C 582.910156 387.476563 584.683594 387.464844 586.472656 387.476563 C 586.480469 401.136719 586.480469 414.804688 586.472656 428.464844 C 582.480469 428.484375 578.480469 428.476563 574.492188 428.484375 C 574.492188 426.867188 574.503906 425.234375 574.511719 423.625 C 576.710938 423.636719 578.921875 423.644531 581.132813 423.644531 C 581.132813 411.597656 581.113281 399.535156 581.140625 387.484375 "/>
<path style=" stroke:none;fill-rule:nonzero;fill:rgb(20.776367%,20.776367%,20.776367%);fill-opacity:1;" d="M 614.8125 388.644531 C 616.382813 388.65625 617.972656 388.664063 619.5625 388.675781 C 619.53125 390.546875 619.523438 392.425781 619.511719 394.316406 C 617.890625 394.296875 616.292969 394.285156 614.703125 394.277344 C 614.722656 392.394531 614.761719 390.515625 614.8125 388.644531 "/>
<path style=" stroke:none;fill-rule:nonzero;fill:rgb(20.776367%,20.776367%,20.776367%);fill-opacity:1;" d="M 699.960938 405.886719 C 700.070313 410.566406 702.480469 414.855469 705.960938 417.886719 C 706.992188 418.726563 708.09375 420.035156 709.613281 419.667969 C 714.3125 416.617188 717.59375 411.554688 718.292969 405.964844 C 712.441406 403.566406 705.820313 403.445313 699.960938 405.886719 M 680.351563 428.496094 C 680.363281 414.824219 680.34375 401.15625 680.363281 387.484375 C 682.132813 387.476563 683.921875 387.476563 685.710938 387.476563 C 685.742188 399.527344 685.730469 411.585938 685.710938 423.636719 C 691.703125 423.507813 697.8125 424.226563 703.671875 422.644531 C 700.582031 419.566406 697.570313 416.257813 695.820313 412.207031 C 694.632813 409.296875 694.691406 406.097656 694.621094 403.015625 C 700.261719 400.1875 706.691406 398.046875 713.050781 399.386719 C 716.660156 400.125 720.140625 401.4375 723.421875 403.105469 C 724.003906 410.886719 719.742188 417.757813 714.160156 422.757813 C 718.183594 423.667969 722.300781 423.757813 726.402344 423.65625 C 726.351563 425.265625 726.3125 426.875 726.28125 428.496094 C 720.410156 428.695313 714.390625 428.464844 708.933594 426.066406 C 699.921875 430.035156 689.871094 427.976563 680.351563 428.496094 "/>
<path style=" stroke:none;fill-rule:nonzero;fill:rgb(20.776367%,20.776367%,20.776367%);fill-opacity:1;" d="M 733.183594 423.65625 C 733.160156 411.597656 733.152344 399.535156 733.183594 387.476563 C 734.960938 387.464844 736.742188 387.464844 738.53125 387.476563 C 738.542969 401.136719 738.542969 414.804688 738.542969 428.476563 C 734.503906 428.484375 730.472656 428.484375 726.441406 428.484375 C 726.460938 426.867188 726.503906 425.246094 726.550781 423.636719 C 728.753906 423.636719 730.960938 423.644531 733.183594 423.65625 "/>
<path style=" stroke:none;fill-rule:nonzero;fill:rgb(20.776367%,20.776367%,20.776367%);fill-opacity:1;" d="M 748.363281 428.484375 C 748.363281 414.816406 748.371094 401.144531 748.363281 387.476563 C 750.113281 387.476563 751.871094 387.476563 753.640625 387.484375 C 753.621094 401.15625 753.671875 414.824219 753.613281 428.496094 C 751.851563 428.484375 750.101563 428.484375 748.363281 428.484375 "/>
<path style=" stroke:none;fill-rule:nonzero;fill:rgb(20.776367%,20.776367%,20.776367%);fill-opacity:1;" d="M 948.460938 404.316406 C 947.472656 410.726563 947.421875 417.234375 948.390625 423.65625 C 952.980469 423.636719 957.570313 423.65625 962.171875 423.644531 C 961.953125 418.324219 962.863281 412.804688 961.09375 407.675781 C 958.601563 403.15625 952.761719 404.035156 948.460938 404.316406 M 980.652344 387.484375 C 982.421875 387.476563 984.203125 387.484375 985.992188 387.496094 C 985.953125 401.144531 986.03125 414.796875 985.953125 428.457031 C 979.800781 427.875 972.910156 430.117188 967.382813 426.636719 C 967.441406 427.097656 967.542969 428.027344 967.601563 428.496094 C 956.582031 428.464844 945.5625 428.496094 934.542969 428.476563 C 934.523438 426.855469 934.511719 425.246094 934.511719 423.636719 C 937.28125 423.636719 940.0625 423.65625 942.851563 423.667969 C 942.261719 416.027344 942.121094 408.265625 943.890625 400.757813 C 950.3125 398.816406 958.132813 397.636719 963.832031 402.015625 C 968.941406 407.347656 967.113281 415.394531 967.621094 422.074219 C 971.550781 424.507813 976.28125 423.464844 980.660156 423.625 C 980.621094 411.574219 980.640625 399.527344 980.652344 387.484375 "/>
<g clip-path="url(#clip3)" clip-rule="nonzero">
<path style=" stroke:none;fill-rule:nonzero;fill:rgb(20.776367%,20.776367%,20.776367%);fill-opacity:1;" d="M 995.710938 387.507813 C 997.53125 387.484375 999.371094 387.476563 1001.21875 387.484375 C 1001.238281 401.144531 1001.191406 414.816406 1001.238281 428.484375 C 999.390625 428.476563 997.550781 428.464844 995.730469 428.445313 C 995.710938 414.804688 995.730469 401.15625 995.710938 387.507813 "/>
</g>
<path style=" stroke:none;fill-rule:nonzero;fill:rgb(20.776367%,20.776367%,20.776367%);fill-opacity:1;" d="M 87.613281 414.644531 C 84.3125 416.375 85.140625 420.535156 84.902344 423.605469 C 88.441406 423.667969 91.992188 423.675781 95.542969 423.617188 C 95.34375 421.007813 95.902344 417.996094 93.980469 415.875 C 92.582031 413.867188 89.691406 413.894531 87.613281 414.644531 M 81.0625 398.886719 C 88.253906 396.757813 96.332031 395.195313 103.492188 398.296875 C 107.652344 399.90625 110.632813 403.695313 112.082031 407.824219 C 113.640625 412.945313 113.300781 418.367188 113.300781 423.644531 C 114.980469 423.636719 116.652344 423.636719 118.34375 423.644531 C 118.363281 425.246094 118.390625 426.867188 118.421875 428.484375 C 93.351563 428.457031 68.28125 428.515625 43.222656 428.476563 C 42.742188 432.746094 42.023438 437.605469 38.34375 440.394531 C 33.34375 444.15625 26.773438 442.535156 20.992188 442.886719 C 14.710938 443.175781 7.421875 442.957031 2.921875 437.894531 C -2.066406 432.335938 0.710938 424.214844 1.320313 417.597656 C 2.980469 417.90625 4.652344 418.226563 6.3125 418.554688 C 5.953125 423.4375 4.203125 428.816406 6.414063 433.464844 C 9.183594 438.125 15.121094 438.355469 19.941406 438.125 C 24.390625 437.90625 29.003906 438.6875 33.320313 437.355469 C 36.683594 435.894531 37.511719 431.984375 37.78125 428.707031 C 34.792969 428.4375 31.863281 427.855469 28.980469 427.035156 C 29.660156 425.554688 30.363281 424.085938 31.042969 422.617188 C 39.8125 424.777344 48.992188 423.125 57.933594 423.65625 C 57.933594 415.675781 57.941406 407.6875 57.902344 399.707031 C 59.671875 399.707031 61.453125 399.695313 63.222656 399.695313 C 63.191406 407.675781 63.210938 415.667969 63.203125 423.644531 C 68.632813 423.644531 74.050781 423.636719 79.480469 423.65625 C 79.613281 420.027344 79.421875 415.90625 82.042969 413.035156 C 85.390625 408.625 92.402344 407.777344 96.601563 411.445313 C 100.371094 414.246094 100.960938 419.265625 100.84375 423.636719 C 103.210938 423.644531 105.570313 423.644531 107.933594 423.65625 C 107.722656 417.214844 109.28125 409.015625 103.441406 404.496094 C 96.980469 399.636719 88.523438 401.65625 81.273438 403.144531 C 81.152344 401.726563 81.09375 400.304688 81.0625 398.886719 "/>
<path style=" stroke:none;fill-rule:nonzero;fill:rgb(20.776367%,20.776367%,20.776367%);fill-opacity:1;" d="M 208.511719 406.394531 C 206.210938 411.316406 206.820313 417.167969 208.652344 422.15625 C 212.183594 423.917969 216.160156 423.726563 219.992188 423.65625 C 219.910156 416.984375 220.113281 410.324219 219.851563 403.664063 C 216.03125 403.65625 210.890625 402.484375 208.511719 406.394531 M 202.261719 407.726563 C 202.550781 403.527344 205.671875 399.664063 209.882813 398.894531 C 215.003906 398.015625 220.230469 398.804688 225.292969 399.734375 C 225.242188 409.117188 225.472656 418.496094 225.171875 427.867188 C 224.703125 432.375 224.480469 437.617188 220.941406 440.9375 C 216.511719 444.257813 210.722656 442.566406 205.761719 441.734375 C 205.78125 440.1875 205.792969 438.636719 205.800781 437.097656 C 209.820313 437.367188 214.34375 439.125 218.082031 436.925781 C 219.8125 434.464844 219.722656 431.316406 220.03125 428.464844 C 214.730469 428.074219 207.503906 430.097656 203.972656 424.925781 C 201.152344 419.726563 201.59375 413.414063 202.261719 407.726563 "/>
<path style=" stroke:none;fill-rule:nonzero;fill:rgb(20.776367%,20.776367%,20.776367%);fill-opacity:1;" d="M 506.820313 398.925781 C 512.242188 398.085938 518.632813 397.765625 522.722656 402.144531 C 528.332031 407.796875 527.753906 416.285156 527.652344 423.617188 C 532.292969 423.667969 536.933594 423.644531 541.582031 423.644531 C 541.59375 415.667969 541.601563 407.675781 541.582031 399.707031 C 543.332031 399.695313 545.101563 399.707031 546.871094 399.726563 C 546.863281 407.695313 546.851563 415.675781 546.871094 423.65625 C 549.703125 423.644531 552.53125 423.644531 555.363281 423.625 C 555.332031 425.246094 555.300781 426.867188 555.28125 428.496094 C 538.261719 428.507813 521.253906 428.464844 504.230469 428.507813 C 504.230469 426.875 504.242188 425.257813 504.261719 423.636719 C 510.320313 423.65625 516.390625 423.65625 522.460938 423.625 C 522.253906 417.546875 523.523438 410.007813 518.191406 405.625 C 515.261719 402.6875 510.863281 403.585938 507.132813 403.367188 C 507.023438 401.875 506.910156 400.394531 506.820313 398.925781 "/>
<path style=" stroke:none;fill-rule:nonzero;fill:rgb(20.776367%,20.776367%,20.776367%);fill-opacity:1;" d="M 653.242188 404.265625 C 652.191406 410.664063 652.210938 417.207031 653.082031 423.625 C 657.710938 423.675781 662.332031 423.636719 666.960938 423.644531 C 666.660156 418.234375 667.902344 412.4375 665.621094 407.335938 C 662.972656 403.15625 657.441406 404.105469 653.242188 404.265625 M 612.542969 406.675781 C 611.3125 411.445313 610.390625 417.105469 613.300781 421.457031 C 617.203125 424.636719 622.703125 423.375 627.363281 423.65625 C 627.332031 417.1875 627.371094 410.726563 627.332031 404.265625 C 622.34375 404.234375 616.621094 402.996094 612.542969 406.675781 M 607.230469 405.476563 C 608.292969 401.675781 612.210938 399.757813 615.863281 399.285156 C 621.441406 398.617188 627.070313 399.316406 632.640625 399.835938 C 632.683594 407.777344 632.660156 415.714844 632.652344 423.65625 C 637.671875 423.644531 642.703125 423.625 647.730469 423.675781 C 646.992188 416.015625 646.84375 408.1875 648.761719 400.6875 C 654.03125 399.226563 659.792969 398.054688 665.082031 400.085938 C 668.242188 401.027344 670.78125 403.757813 671.453125 406.996094 C 672.972656 414.054688 672.09375 421.324219 672.332031 428.476563 C 654.863281 428.464844 637.390625 428.507813 619.921875 428.476563 C 615.441406 428.4375 609.910156 427.855469 607.703125 423.304688 C 605.441406 417.695313 605.523438 411.226563 607.230469 405.476563 "/>
<path style=" stroke:none;fill-rule:nonzero;fill:rgb(20.776367%,20.776367%,20.776367%);fill-opacity:1;" d="M 780.421875 406.457031 C 777.613281 411.207031 778.222656 417.417969 780.792969 422.144531 C 785.203125 423.925781 789.980469 423.746094 794.640625 423.636719 C 794.601563 417.175781 794.652344 410.726563 794.613281 404.277344 C 789.921875 404.445313 784.132813 402.707031 780.421875 406.457031 M 774.59375 405.296875 C 775.78125 401.324219 780.082031 399.605469 783.863281 399.1875 C 789.171875 398.695313 794.503906 399.355469 799.800781 399.765625 C 799.902344 407.734375 799.851563 415.695313 799.832031 423.65625 C 804.933594 423.636719 810.042969 423.695313 815.152344 423.585938 C 815.132813 416.597656 815.132813 409.597656 815.152344 402.605469 C 816.890625 402.605469 818.640625 402.617188 820.402344 402.636719 C 820.371094 409.664063 820.371094 416.707031 820.390625 423.734375 C 823.0625 423.726563 825.792969 423.644531 828.300781 422.574219 C 830.992188 416.246094 829.5625 409.246094 829.882813 402.585938 C 831.632813 402.597656 833.382813 402.617188 835.152344 402.636719 C 835.0625 409.214844 835.5625 415.835938 834.503906 422.375 C 837.53125 423.734375 840.84375 423.785156 844.101563 423.636719 C 844.230469 415.707031 844.042969 407.785156 843.09375 399.90625 C 844.183594 399.855469 846.363281 399.757813 847.453125 399.707031 C 849.523438 407.527344 849.472656 415.625 849.332031 423.65625 C 853.960938 423.644531 858.59375 423.644531 863.222656 423.644531 C 863.230469 416.636719 863.222656 409.617188 863.230469 402.605469 C 864.992188 402.605469 866.773438 402.617188 868.550781 402.625 C 868.582031 409.65625 868.5625 416.675781 868.5625 423.695313 C 871.671875 423.625 876.253906 424.335938 877.300781 420.394531 C 878.953125 414.644531 877.730469 408.515625 878.132813 402.605469 L 883.382813 402.605469 C 883.273438 409.1875 883.84375 415.824219 882.730469 422.347656 C 885.710938 423.734375 889.003906 423.777344 892.230469 423.644531 C 892.28125 415.726563 892.300781 407.804688 891.34375 399.9375 C 892.773438 399.855469 894.222656 399.777344 895.683594 399.707031 C 898.300781 409.097656 897.253906 418.886719 897.480469 428.496094 C 891.78125 428.175781 885.660156 429.566406 880.460938 426.574219 C 878.683594 427.496094 876.851563 428.484375 874.8125 428.457031 C 865.203125 428.574219 855.582031 428.40625 845.972656 428.507813 C 841.363281 428.425781 836.410156 429.125 832.300781 426.546875 C 830.34375 427.667969 828.203125 428.617188 825.902344 428.484375 C 812.902344 428.484375 799.910156 428.496094 786.921875 428.476563 C 782.660156 428.355469 777.320313 427.894531 775.183594 423.574219 C 772.632813 417.875 772.773438 411.195313 774.59375 405.296875 "/>
<path style=" stroke:none;fill-rule:nonzero;fill:rgb(20.776367%,20.776367%,20.776367%);fill-opacity:1;" d="M 910.792969 405.804688 C 907.722656 410.765625 908.300781 417.1875 910.722656 422.296875 C 914.171875 423.867188 917.992188 423.726563 921.703125 423.65625 C 921.710938 416.976563 921.792969 410.285156 921.640625 403.617188 C 918.023438 403.726563 913.410156 402.554688 910.792969 405.804688 M 909.621094 399.644531 C 915.203125 397.464844 921.402344 398.835938 927.132813 399.726563 C 927.152344 407.707031 927.140625 415.675781 927.132813 423.644531 L 934.382813 423.644531 C 934.382813 425.257813 934.382813 426.867188 934.410156 428.496094 C 931.992188 428.476563 929.59375 428.476563 927.191406 428.457031 C 926.570313 432.765625 926.210938 437.617188 922.890625 440.835938 C 918.53125 444.257813 912.691406 442.597656 907.742188 441.757813 C 907.722656 440.207031 907.722656 438.667969 907.722656 437.125 C 911.53125 437.316406 915.632813 438.976563 919.292969 437.277344 C 922.113281 435.304688 921.410156 431.464844 921.730469 428.507813 C 916.953125 428.175781 911.503906 429.464844 907.292969 426.636719 C 903.671875 422.785156 903.292969 416.996094 903.503906 411.976563 C 903.820313 407.386719 904.78125 401.585938 909.621094 399.644531 "/>
<path style=" stroke:none;fill-rule:nonzero;fill:rgb(20.776367%,20.776367%,20.776367%);fill-opacity:1;" d="M 327.53125 406.414063 C 325.382813 411.925781 325.441406 418.097656 327.601563 423.597656 C 331.410156 423.667969 335.222656 423.644531 339.03125 423.644531 C 339.03125 417.304688 339.050781 410.964844 339.023438 404.625 C 335.101563 404.304688 330.933594 404.097656 327.53125 406.414063 M 301.140625 399.726563 C 302.882813 399.714844 304.621094 399.707031 306.371094 399.714844 C 306.382813 407.695313 306.390625 415.675781 306.371094 423.65625 C 311.53125 423.636719 316.691406 423.644531 321.851563 423.667969 C 320.542969 418.117188 320.03125 412.175781 321.722656 406.65625 C 322.503906 403.925781 324.550781 401.484375 327.332031 400.695313 C 332.902344 399.1875 338.742188 399.894531 344.410156 400.375 C 344.410156 408.136719 344.421875 415.886719 344.410156 423.644531 C 346.0625 423.636719 347.710938 423.636719 349.371094 423.644531 C 349.351563 425.257813 349.332031 426.867188 349.332031 428.484375 C 328.261719 428.457031 307.203125 428.554688 286.140625 428.4375 C 285.753906 432.085938 285.660156 436.144531 282.960938 438.984375 C 279.550781 443.105469 273.753906 443.046875 268.871094 443.015625 C 262.78125 442.816406 256.332031 443.804688 250.621094 441.1875 C 246.222656 439.347656 242.941406 434.824219 243.0625 429.996094 C 243.09375 425.824219 244.003906 421.734375 244.632813 417.625 C 246.273438 417.9375 247.921875 418.257813 249.570313 418.574219 C 249.011719 422.644531 248.0625 426.757813 248.570313 430.875 C 249.5625 435.484375 254.320313 438.277344 258.84375 438.066406 C 264.460938 437.976563 270.171875 438.574219 275.742188 437.605469 C 279.660156 436.546875 280.59375 432.207031 280.820313 428.695313 C 277.820313 428.40625 274.863281 427.835938 271.980469 426.964844 C 272.773438 425.546875 273.570313 424.144531 274.382813 422.757813 C 283.160156 424.605469 292.253906 423.234375 301.160156 423.605469 C 301.140625 415.644531 301.152344 407.6875 301.140625 399.726563 "/>
<path style=" stroke:none;fill-rule:nonzero;fill:rgb(20.776367%,20.776367%,20.776367%);fill-opacity:1;" d="M 357.832031 399.695313 C 359.613281 399.695313 361.402344 399.707031 363.191406 399.707031 C 363.191406 407.6875 363.210938 415.667969 363.183594 423.636719 C 365.902344 423.644531 368.632813 423.644531 371.363281 423.636719 C 371.34375 425.257813 371.320313 426.875 371.320313 428.496094 C 364.03125 428.464844 356.753906 428.515625 349.472656 428.484375 C 349.480469 426.867188 349.492188 425.246094 349.503906 423.636719 C 352.273438 423.636719 355.050781 423.644531 357.832031 423.644531 C 357.820313 415.667969 357.832031 407.675781 357.832031 399.695313 "/>
<path style=" stroke:none;fill-rule:nonzero;fill:rgb(20.776367%,20.776367%,20.776367%);fill-opacity:1;" d="M 450.863281 399.714844 C 452.660156 399.707031 454.453125 399.707031 456.261719 399.707031 C 456.261719 407.6875 456.230469 415.667969 456.273438 423.65625 C 458.980469 423.644531 461.683594 423.644531 464.402344 423.644531 C 464.363281 425.257813 464.332031 426.867188 464.3125 428.484375 C 453.871094 428.476563 443.433594 428.527344 433.003906 428.457031 C 428.722656 428.195313 423.363281 428.175781 420.753906 424.136719 C 418.03125 418.945313 420.121094 412.996094 420.8125 407.554688 C 420.773438 405.195313 423.890625 406.574219 425.371094 406.125 C 425.070313 410.597656 423.511719 415.105469 424.453125 419.574219 C 425.332031 422.765625 428.992188 423.246094 431.78125 423.515625 C 438.132813 423.824219 444.503906 423.566406 450.863281 423.644531 C 450.84375 415.667969 450.851563 407.695313 450.863281 399.714844 "/>
<path style=" stroke:none;fill-rule:nonzero;fill:rgb(20.776367%,20.776367%,20.776367%);fill-opacity:1;" d="M 472.980469 399.695313 L 478.273438 399.695313 C 478.273438 409.285156 478.261719 418.886719 478.273438 428.476563 C 473.683594 428.507813 469.101563 428.496094 464.511719 428.484375 C 464.53125 426.867188 464.550781 425.246094 464.582031 423.636719 C 467.371094 423.644531 470.171875 423.644531 472.972656 423.636719 C 472.960938 415.65625 472.941406 407.675781 472.980469 399.695313 "/>
<path style=" stroke:none;fill-rule:nonzero;fill:rgb(20.776367%,20.776367%,20.776367%);fill-opacity:1;" d="M 493.082031 399.785156 C 494.800781 399.777344 496.523438 399.777344 498.261719 399.785156 C 498.230469 410.1875 498.332031 420.597656 498.230469 431.007813 C 498.0625 435.144531 496.8125 440.125 492.761719 442.097656 C 490.3125 443.507813 487.402344 442.824219 484.753906 442.757813 C 484.722656 441.265625 484.703125 439.796875 484.691406 438.324219 C 487.152344 437.855469 490.492188 438.316406 491.820313 435.636719 C 493.210938 432.644531 492.992188 429.1875 493.113281 425.964844 C 493.070313 417.234375 493.113281 408.507813 493.082031 399.785156 "/>
<path style=" stroke:none;fill-rule:nonzero;fill:rgb(20.776367%,20.776367%,20.776367%);fill-opacity:1;" d="M 477.09375 433.167969 C 478.621094 433.175781 480.171875 433.195313 481.722656 433.234375 C 481.710938 435.015625 481.710938 436.804688 481.722656 438.605469 C 480.171875 438.597656 478.621094 438.597656 477.082031 438.597656 C 477.070313 436.785156 477.070313 434.976563 477.09375 433.167969 "/>
<path style=" stroke:none;fill-rule:nonzero;fill:rgb(20.776367%,20.776367%,20.776367%);fill-opacity:1;" d="M 15.480469 446.875 C 17.023438 446.855469 18.5625 446.847656 20.113281 446.847656 L 20.113281 452.496094 C 18.5625 452.484375 17.003906 452.484375 15.453125 452.484375 C 15.460938 450.617188 15.472656 448.746094 15.480469 446.875 "/>
<path style=" stroke:none;fill-rule:nonzero;fill:rgb(20.776367%,20.776367%,20.776367%);fill-opacity:1;" d="M 22.960938 446.835938 C 24.503906 446.847656 26.042969 446.847656 27.582031 446.875 L 27.582031 452.476563 C 26.023438 452.484375 24.453125 452.496094 22.890625 452.507813 C 22.910156 450.617188 22.941406 448.726563 22.960938 446.835938 "/>
<path style=" stroke:none;fill-rule:nonzero;fill:rgb(21.166992%,21.166992%,21.166992%);fill-opacity:1;" d="M 301.210938 388.597656 C 302.902344 388.597656 304.601563 388.597656 306.3125 388.605469 C 306.300781 390.496094 306.300781 392.375 306.3125 394.265625 C 304.601563 394.277344 302.902344 394.277344 301.210938 394.285156 C 301.203125 392.386719 301.203125 390.484375 301.210938 388.597656 "/>
<path style=" stroke:none;fill-rule:nonzero;fill:rgb(21.166992%,21.166992%,21.166992%);fill-opacity:1;" d="M 545.671875 388.65625 C 547.261719 388.664063 548.851563 388.675781 550.453125 388.6875 C 550.441406 390.554688 550.433594 392.425781 550.421875 394.304688 C 548.832031 394.296875 547.253906 394.285156 545.683594 394.285156 C 545.671875 392.40625 545.671875 390.527344 545.671875 388.65625 "/>
<path style=" stroke:none;fill-rule:nonzero;fill:rgb(21.166992%,21.166992%,21.166992%);fill-opacity:1;" d="M 782.101563 388.644531 C 783.652344 388.664063 785.230469 388.6875 786.8125 388.714844 C 786.78125 390.566406 786.78125 392.425781 786.78125 394.285156 C 785.210938 394.285156 783.652344 394.285156 782.09375 394.304688 C 782.082031 392.414063 782.082031 390.527344 782.101563 388.644531 "/>
<path style=" stroke:none;fill-rule:nonzero;fill:rgb(21.166992%,21.166992%,21.166992%);fill-opacity:1;" d="M 58.050781 388.574219 C 59.722656 388.597656 61.402344 388.597656 63.082031 388.617188 C 63.070313 390.496094 63.0625 392.386719 63.0625 394.285156 C 61.371094 394.277344 59.691406 394.285156 58.011719 394.296875 C 58.023438 392.386719 58.03125 390.476563 58.050781 388.574219 "/>
<path style=" stroke:none;fill-rule:nonzero;fill:rgb(21.166992%,21.166992%,21.166992%);fill-opacity:1;" d="M 334.511719 394.285156 C 334.492188 392.414063 334.480469 390.546875 334.480469 388.675781 C 336.003906 388.675781 337.53125 388.675781 339.070313 388.695313 C 339.082031 390.546875 339.09375 392.40625 339.101563 394.277344 C 337.5625 394.277344 336.03125 394.277344 334.511719 394.285156 "/>
<path style=" stroke:none;fill-rule:nonzero;fill:rgb(21.166992%,21.166992%,21.166992%);fill-opacity:1;" d="M 538.222656 394.324219 C 538.203125 392.4375 538.191406 390.554688 538.191406 388.664063 C 539.8125 388.675781 541.453125 388.695313 543.09375 388.707031 C 543.082031 390.546875 543.09375 392.386719 543.113281 394.234375 C 541.472656 394.257813 539.84375 394.285156 538.222656 394.324219 "/>
<path style=" stroke:none;fill-rule:nonzero;fill:rgb(21.166992%,21.166992%,21.166992%);fill-opacity:1;" d="M 789.542969 394.285156 C 789.542969 392.414063 789.542969 390.554688 789.5625 388.695313 C 791.09375 388.6875 792.632813 388.6875 794.183594 388.6875 C 794.183594 390.546875 794.183594 392.414063 794.191406 394.285156 "/>
<path style=" stroke:none;fill-rule:nonzero;fill:rgb(21.166992%,21.166992%,21.166992%);fill-opacity:1;" d="M 436.402344 433.195313 C 438.101563 433.175781 439.800781 433.175781 441.523438 433.1875 C 441.511719 435.015625 441.511719 436.855469 441.523438 438.707031 C 439.800781 438.695313 438.09375 438.6875 436.390625 438.695313 C 436.390625 436.855469 436.390625 435.015625 436.402344 433.195313 "/>
<path style=" stroke:none;fill-rule:nonzero;fill:rgb(21.166992%,21.166992%,21.166992%);fill-opacity:1;" d="M 258.5625 446.894531 C 260.191406 446.867188 261.820313 446.847656 263.460938 446.855469 C 263.441406 448.726563 263.433594 450.605469 263.421875 452.496094 C 261.800781 452.484375 260.183594 452.496094 258.5625 452.507813 C 258.550781 450.625 258.550781 448.757813 258.5625 446.894531 "/>
<path style=" stroke:none;fill-rule:nonzero;fill:rgb(99.609375%,99.609375%,99.609375%);fill-opacity:1;" d="M 87.613281 414.644531 C 89.691406 413.894531 92.582031 413.867188 93.980469 415.875 C 95.902344 417.996094 95.34375 421.007813 95.542969 423.617188 C 91.992188 423.675781 88.441406 423.667969 84.902344 423.605469 C 85.140625 420.535156 84.3125 416.375 87.613281 414.644531 "/>
<path style=" stroke:none;fill-rule:nonzero;fill:rgb(21.556091%,21.556091%,21.556091%);fill-opacity:1;" d="M 469.402344 433.15625 C 471.023438 433.167969 472.640625 433.195313 474.273438 433.226563 C 474.253906 435.007813 474.261719 436.796875 474.273438 438.585938 C 472.632813 438.585938 471.011719 438.597656 469.382813 438.617188 C 469.382813 436.785156 469.390625 434.964844 469.402344 433.15625 "/>
<path style=" stroke:none;fill-rule:nonzero;fill:rgb(35.693359%,35.693359%,35.693359%);fill-opacity:1;" d="M 133.703125 462.535156 C 135.121094 462.515625 136.550781 462.496094 137.980469 462.496094 C 137.992188 464.144531 138.003906 465.816406 138.023438 467.484375 C 136.582031 467.457031 135.152344 467.445313 133.722656 467.4375 C 133.710938 465.796875 133.703125 464.167969 133.703125 462.535156 "/>
<path style=" stroke:none;fill-rule:nonzero;fill:rgb(35.693359%,35.693359%,35.693359%);fill-opacity:1;" d="M 278.871094 478.867188 C 276.683594 481.65625 276.8125 485.507813 276.730469 488.886719 C 276.992188 492.234375 276.980469 496.726563 280.683594 498.214844 C 284.011719 499.367188 287.421875 497.625 290.5625 496.617188 C 290.542969 490.214844 290.59375 483.816406 290.523438 477.417969 C 286.683594 477.144531 281.972656 475.824219 278.871094 478.867188 M 290.5625 461.625 C 291.953125 461.617188 293.34375 461.617188 294.742188 461.617188 C 294.710938 474.984375 294.730469 488.367188 294.730469 501.734375 C 293.332031 501.726563 291.941406 501.726563 290.5625 501.734375 C 290.5625 501.316406 290.570313 500.476563 290.570313 500.054688 C 286.5625 502.035156 281.601563 503.445313 277.371094 501.304688 C 273.792969 499.214844 272.863281 494.6875 272.53125 490.875 C 272.292969 485.976563 272.503906 480.585938 275.421875 476.445313 C 279.230469 472.15625 285.511719 473.074219 290.59375 473.726563 C 290.542969 469.6875 290.5625 465.65625 290.5625 461.625 "/>
<path style=" stroke:none;fill-rule:nonzero;fill:rgb(35.693359%,35.693359%,35.693359%);fill-opacity:1;" d="M 439.5625 462.527344 C 440.933594 462.515625 442.300781 462.515625 443.683594 462.527344 C 443.671875 464.167969 443.652344 465.816406 443.652344 467.476563 C 442.273438 467.457031 440.902344 467.445313 439.542969 467.445313 C 439.542969 465.796875 439.550781 464.15625 439.5625 462.527344 "/>
<path style=" stroke:none;fill-rule:nonzero;fill:rgb(35.693359%,35.693359%,35.693359%);fill-opacity:1;" d="M 940.253906 501.765625 C 940.261719 492.375 940.140625 482.984375 940.3125 473.605469 C 941.3125 473.636719 943.3125 473.714844 944.3125 473.757813 C 944.3125 483.085938 944.28125 492.417969 944.34375 501.746094 C 942.960938 501.746094 941.601563 501.746094 940.253906 501.765625 "/>
<path style=" stroke:none;fill-rule:nonzero;fill:rgb(36.083984%,36.083984%,36.083984%);fill-opacity:1;" d="M 626.203125 462.507813 C 627.5625 462.496094 628.933594 462.507813 630.3125 462.515625 C 630.300781 464.167969 630.300781 465.816406 630.3125 467.476563 C 628.933594 467.464844 627.570313 467.457031 626.210938 467.464844 C 626.203125 465.804688 626.191406 464.15625 626.203125 462.507813 "/>
<path style=" stroke:none;fill-rule:nonzero;fill:rgb(34.910583%,34.910583%,34.910583%);fill-opacity:1;" d="M 375.941406 473.824219 C 380.042969 472.507813 384.453125 473.367188 388.632813 473.875 C 388.621094 475.066406 388.613281 476.257813 388.613281 477.464844 C 384.273438 476.964844 379.691406 476.496094 375.683594 478.597656 C 373.832031 484.246094 373.042969 490.777344 375.753906 496.285156 C 379.011719 499.875 384.402344 498.214844 388.632813 498.074219 C 388.632813 499.265625 388.640625 500.464844 388.660156 501.667969 C 383.722656 502.125 377.902344 503.554688 373.621094 500.257813 C 369.53125 496.707031 370.140625 490.785156 370.113281 485.917969 C 370.09375 481.367188 371.242188 475.746094 375.941406 473.824219 "/>
<path style=" stroke:none;fill-rule:nonzero;fill:rgb(34.910583%,34.910583%,34.910583%);fill-opacity:1;" d="M 897.480469 490.585938 C 897.460938 492.777344 897.492188 494.964844 897.570313 497.167969 C 901.320313 500.125 906.101563 498.347656 910.171875 497.097656 C 910.160156 494.046875 910.160156 491.007813 910.183594 487.964844 C 905.882813 488.4375 901.132813 487.804688 897.480469 490.585938 M 894.992188 474.535156 C 898.84375 473.296875 902.972656 473.066406 906.992188 473.257813 C 909.800781 473.394531 912.960938 475.046875 913.542969 478.035156 C 914.703125 484.257813 913.550781 490.636719 914.242188 496.90625 C 915.703125 498.617188 917.550781 500.105469 917.453125 502.636719 C 915.003906 502.117188 912.613281 501.40625 910.371094 500.316406 C 906.683594 501.625 902.78125 502.796875 898.84375 502.167969 C 892.121094 500.875 891.171875 490.136719 896.613281 486.765625 C 900.980469 485.074219 905.773438 485.234375 910.351563 484.585938 C 909.980469 482.054688 910.460938 478.535156 907.632813 477.304688 C 903.273438 476.417969 898.800781 477.464844 894.410156 477.625 C 894.5625 476.855469 894.851563 475.304688 894.992188 474.535156 "/>
</g>
</svg>
